<?xml version="1.0" encoding="UTF-8" standalone="no"?>
<!-- Created with Inkscape (http://www.inkscape.org/) -->

<svg
   version="1.1"
   id="svg1"
   width="1730.0471"
   height="457.06366"
   viewBox="0 0 1730.0471 457.06366"
   sodipodi:docname="IMG_3573.svg"
   inkscape:version="1.4 (86a8ad7, 2024-10-11)"
   xmlns:inkscape="http://www.inkscape.org/namespaces/inkscape"
   xmlns:sodipodi="http://sodipodi.sourceforge.net/DTD/sodipodi-0.dtd"
   xmlns="http://www.w3.org/2000/svg"
   xmlns:svg="http://www.w3.org/2000/svg">
  <sodipodi:namedview
     id="namedview1"
     pagecolor="#ffffff"
     bordercolor="#000000"
     borderopacity="0.25"
     inkscape:showpageshadow="2"
     inkscape:pageopacity="0.0"
     inkscape:pagecheckerboard="0"
     inkscape:deskcolor="#d1d1d1"
     inkscape:zoom="1.8101934"
     inkscape:cx="1178.3272"
     inkscape:cy="1151.5344"
     inkscape:window-width="2560"
     inkscape:window-height="1009"
     inkscape:window-x="-8"
     inkscape:window-y="-8"
     inkscape:window-maximized="1"
     inkscape:current-layer="layer2">
    <inkscape:page
       x="0"
       y="0"
       width="1730.0471"
       height="457.06366"
       id="page2"
       margin="0"
       bleed="0" />
  </sodipodi:namedview>
  <defs
     id="defs1" />
  <g
     inkscape:groupmode="layer"
     id="layer2"
     inkscape:label="Filled"
     inkscape:highlight-color="#ff0000"
     transform="translate(-132.56157,-839.62372)">
    <path
       style="display:inline;fill:#171717;fill-opacity:1;stroke:none;stroke-width:0.5;stroke-dasharray:none;stroke-opacity:1"
       d="m 1824.6094,856.75391 c 10.6566,-0.49475 5.5193,55.98852 11.1276,68.81225 3.5989,8.22909 11.3657,2.61373 17.8248,3.92346 4.6042,0.93362 6.5909,-0.0342 7.3845,4.4587 0.8322,4.71128 2.1006,18.28068 1.5113,22.37199 -0.5685,3.94714 -3.1804,9.00379 -6.5401,11.55994 -6.3929,4.86377 -15.3106,0.48559 -16.6426,3.59607 -3.7349,8.72159 -5.3584,15.90681 -6.6523,24.93384 -1.0614,7.40514 -4.5008,21.81364 -3.4448,30.97114 0.7683,6.6626 -7.6407,8.758 -5.838,12.1304 0.9958,1.8627 7.2461,-1.3672 7.2461,-1.3672 0.173,8.3872 3.5624,18.6258 3.5625,27.0508 3e-4,15.5565 -7.6136,27.9121 2.9104,49.0856 3.7188,7.4819 10.6384,14.7287 22.2532,16.4761 0,7.4582 -0.4233,16.8449 -1.3177,21.9859 -0.7374,4.239 -6.1843,8.7741 -10.2174,15.7437 -3.9948,6.9037 -1.1101,15.7491 -3.8409,19.3011 -2.7307,3.5521 -3.3992,6.3314 -8.3887,9.4246 -11.3311,7.0244 -16.7221,18.6907 -31.7506,12.6054 -10.4901,-4.2477 -14.7907,-26.0855 -18.1461,-35.4724 -3.8526,-10.778 -6.5505,-22.499 -8.109,-34.5549 11.241,-6.8965 0.054,0.4122 11.241,-6.8965 1.4775,2.4351 4.0137,3.8379 4.1367,1.6725 0.2153,-3.7917 4.8714,-6.71 4.2847,-10.5604 -0.5577,-3.6594 -0.4973,-4.1106 -4.3898,-2.014 -4.2293,2.278 -2.8676,3.2805 -4.4266,6.0979 -0.6364,1.15 -0.5512,2.5218 0.395,4.804 -3.2467,1.9919 0,0 -11.241,6.8965 -3.7048,-14.4173 0.4608,-57.0511 0.4211,-59.2712 -0.084,-4.7137 4.6673,-7.8616 7.3618,-12.9208 1.3741,-2.58 3.0638,-7.991 1.6755,-9.5984 -2.9549,-3.4212 -5.5146,8.7042 -7.4834,8.9335 -1.8419,0.2145 -3.6864,-4.7686 -4.0025,-5.5243 -5.6996,-13.6246 -2.6047,-38.8972 1.3463,-47.8688 3.5821,-8.1337 2.4006,-18.90379 3.1313,-28.57365 0.6987,-9.24574 3.8223,-21.65365 0.9334,-25.90451 -1.2691,-1.86746 -5.9643,0.42662 -8.9251,2.59987 -0.8124,-1.48886 0.5231,-3.02414 1.6113,-3.92969 0.7663,-0.63765 2.3649,-3.33607 2.3653,-4.07617 10e-4,-2.13437 -4.2345,-2.05196 -5.9532,-1.28906 -1.9062,0.84619 -3.9642,4.48476 -3.9884,6.95727 -0.024,2.41535 4.1623,3.91968 4.1623,3.91968 0,0 -5.4,4.13741 -8.6368,4.29492 -1.5391,0.0749 -4.0014,-7.53552 -1.4422,-14.50773 2.8228,-7.69037 9.5204,-16.82749 12.0508,-22.78914 5.0121,-11.80838 4.8465,-25.74597 12.993,-36.00806 4.6566,-5.86597 12.4028,-6.45545 17.2456,-11.71021 7.3122,-7.93432 15.8434,-25.51819 22.2017,-25.77001"
       id="path15981"
       sodipodi:nodetypes="cssssssssscsscsszsssccssssccsssssssscsssscsssssc"
       inkscape:label="the end at las_T_" />
    <path
       style="display:inline;fill:#171717;fill-opacity:1;stroke:none;stroke-width:0.5;stroke-linejoin:round;stroke-dasharray:none;stroke-opacity:1"
       d="m 1750.3183,1002.5361 c 1.1289,7.686 6.1949,8.2512 8.6439,14.7772 4.9847,13.283 6.2699,43.7522 5.4016,48.1701 -0.2809,1.4292 -4.886,-0.6945 -5.0543,1.8644 -0.08,1.2152 4.7608,2.6518 4.8644,3.7916 1.7429,19.1777 1.412,38.9747 -0.4416,58.1301 -0.8236,8.511 -1.3501,19.3399 -5.8527,26.962 -5.8392,9.8846 -16.8647,12.7709 -24.6684,20.3616 -3.4929,3.3975 -10.5122,7.4899 -11.6907,13.099 -1.3822,6.5789 -0.3318,17.6351 -4.0478,14.5852 -4.3217,-3.5468 -6.8552,-14.2928 -10.4493,-10.1523 -11.3712,13.1001 0.5734,2.9455 1.6558,6.0776 1.1224,3.2474 -16.2307,20.0955 -20.9662,16.4121 -10.6748,-8.3035 -13.1834,-26.5183 -28.42,-29.4663 0,-0.4771 2.9321,-1.6334 2.707,-4.1484 -0.2251,-2.515 -9.6895,-9.834 -5.0505,2.7436 -3.7203,0.4805 -12.2101,3.6643 -19.3676,6.1583 -6.536,2.2774 -11.9839,3.6583 -11.2108,8.3704 0.9627,5.8672 10.8297,6.0202 11.1804,11.7996 0.3124,5.1484 -6.7823,12.6443 -11.3239,11.0768 -11.7716,-4.0631 -12.6702,-26.6699 -11.7883,-36.1487 2.1443,-23.0472 6.3125,-29.7945 10.0594,-42.4835 1.0526,-3.5647 5.1056,-12.873 10.2337,-21.6949 3.147,-5.4136 22.7411,-6.7454 30.5998,-8.2766 5.7224,-1.1149 17.6916,-2.9405 21.0296,-0.8768 5.0655,3.1319 19.2356,20.4821 21.3037,25.2261 4.9419,-6.1621 1.3928,-23.1385 0.2629,-30.213 -1.069,-6.6933 3.9902,-28.0986 4.5791,-35.5446 0.6106,-7.7198 -2.6813,-16.4954 -14.4707,-11.4322 -7.0166,3.0135 -10.4867,3.0523 -18.7096,11.0693 -4.0861,3.9839 -9.7059,12.5716 -12.7909,19.1331 -1.6636,3.5384 -9.3026,26.3681 -12.5238,21.8616 -3.6041,-5.0421 -5.1298,-9.4916 -6.5314,-13.665 -1.6841,-5.0146 -6.1757,-12.153 -9.3663,-16.0041 -6.1925,-7.4743 -12.0405,-15.1353 -14.3917,-24.8499 -1.068,-4.413 1.0974,-18.6016 0.6601,-23.032 -0.9486,-9.6116 -4.5397,-12.5037 -4.9679,-22.3556 -0.4647,-10.6918 4.4104,-20.61138 4.9993,-31.13811 l 16.3495,1.42723 c 0.701,2.82135 4.5291,1.29733 7.0413,0.17147 2.6595,-1.19189 4.6104,-6.90589 7.9085,-6.90013 1.091,0.002 5.7405,2.60001 7.3368,0.83026 3.5852,-3.9749 -1.525,-2.51188 -4.5946,-6.03138 -0.5414,-0.62073 1.8818,-4.05642 0.1765,-6.56646 -0.8984,-1.32237 -8.1496,2.22892 -11.75,7.02533 -2.4024,3.20049 -5.8353,4.52852 -6.1185,11.47091 -5.7975,-0.50609 0,0 -16.3495,-1.42723 -1.4448,-11.47391 2.7781,-34.55219 3.6774,-37.98551 1.1908,-4.54609 16.588,-1.57312 22.615,-4.48901 7.5076,-3.6322 12.5812,-10.53345 19.7071,-14.79956 11.8853,-7.11548 22.2978,-5.36914 33.6132,-22.8208 4.5964,0.82848 7.0658,4.61242 9.5118,6.82861 6.0215,5.45598 15.9789,12.75785 22.1174,8.40003 3.3312,-2.36489 -2.9287,-11.40443 -2.3835,-16.82948 0.3301,-3.28515 1.4995,-14.50524 8.824,-13.34435 4.8037,0.76136 8.2063,7.02913 9.302,13.4494 0.996,5.83611 -0.8289,11.88203 0.083,14.73834 3.4856,10.91837 0.7011,16.20102 -0.4405,24.62498 -1.0442,7.70518 -1.5865,15.424 -4.5714,22.69887 -3.1886,7.77149 -14.3721,14.41029 -15.0093,21.76063 -0.211,2.4343 -7.7995,-2.46609 -13.7128,-4.38883 -4.3283,-1.40739 -8.5692,-0.47008 -18.269,-2.95864 -7.9619,-2.04269 -3.2028,0.31319 -18.5021,-10.76906 -2.1395,-1.54977 -5.9758,3.49104 -6.1589,14.20411 -0.1327,7.76821 1.1326,11.1601 -0.9841,19.51298 -1.9247,7.5954 -5.7619,10.6724 -5.9659,16.7715 -0.077,2.2899 5.5841,9.6989 8.7627,9.2764 2.407,-0.32 4.1589,0.1104 5.6639,-2.0043 1.036,-1.4558 0.133,-5.5684 4.7666,-10.7709 3.0637,-3.4399 10.7401,-6.2516 21.607,-17.63353 3.8651,-4.04832 5.188,-9.5047 7.6806,-13.01642 7.1213,-2.44374 31.9267,16.4133 33.9695,19.35685"
       id="path15984"
       sodipodi:nodetypes="cssssssssssssczcssssssssscsssssssssssccssssssccssscssssssssssssssssssscc"
       inkscape:label="the end at la_S_t" />
    <path
       id="path15993"
       style="display:inline;fill:#171717;fill-opacity:1;stroke:none;stroke-width:0.5;stroke-dasharray:none;stroke-opacity:1"
       d="m 1600.1407,927.10231 c -7.6736,-3.02332 -11.6062,7.46851 -0.5371,4.37594 1.5167,8.28978 -0.5713,19.94308 -2.1982,28.55699 -6.1019,32.30971 -0.4899,80.87646 -2.3428,92.29356 -2.8402,4.5274 -10.3898,15.595 0.7929,6.3294 0.058,9.6514 0.4144,20.8123 0.904,31.8711 0.7394,16.702 -1.4215,29.204 5.0697,40.3387 3.2884,5.6408 11.0678,5.637 14.2091,10.3419 1.1176,1.6739 -0.1986,13.1903 -2.2066,18.8994 -6.3854,18.155 -11.7288,23.2871 -20.1841,40.3692 -2.0983,4.2392 -7.3534,14.2445 -12.4038,13.2936 -7.6367,-1.4379 -17.1631,-13.7456 -19.0721,-18.4791 10.1528,1.6846 7.4194,-4.1288 4.9993,-6.6013 -0.5626,-0.5748 -1.7511,-4.1719 -3.1787,-4.6731 -1.7227,-0.6048 -3.7633,2.0208 -4.9545,3.0622 -2.8621,-7.7685 -5.5274,-16.088 -8.2458,-24.2589 l 6.4889,-4.6358 c 2.9958,1.2189 2.5647,1.9028 5.3131,-0.8697 0.9319,-0.9402 0.5845,-3.2118 -1.5564,-4.1968 -1.8535,-0.8527 -6.5437,-0.062 -3.7567,5.0665 -2.4176,1.7271 0,0 -6.4889,4.6358 -1.1972,-3.4596 -4.3014,-8.3569 -4.464,-8.7983 -6.6401,12.5492 -4.2377,23.5914 -15.6686,34.8226 -5.194,5.1034 -11.4641,17.0984 -15.9966,23.9958 -3.0921,4.7056 -9.1178,3.9264 -15.5944,-0.025 -20.7636,-12.6674 -18.1112,-29.354 -30.2961,-46.9942 -6.9544,-10.0681 -6.9146,-39.477 -7.4156,-58.3564 -0.4696,-17.6945 4.1358,-31.3539 -0.3127,-48.7679 -0.6831,-2.674 -1.1628,-5.4006 -1.4827,-8.1683 4.9662,-3.156 0,0 4.9662,-3.156 1.9551,0.3583 9.5147,-3.7103 9.7506,-7.9722 0.1586,-2.8665 -2.774,-8.156 -7.2176,-6.8762 -2.3482,0.6763 0.4671,3.8169 -0.8885,7.1258 -0.9874,2.4101 -2.7935,5.8237 -1.6445,7.7226 -1.1346,0.721 0,0 -4.9662,3.156 -1.6836,-14.636 3.0933,-47.6737 2.3389,-52.92681 -1.7806,-12.39799 -5.8955,-38.44015 -4.278,-51.56192 13.9529,-4.31168 26.6602,-13.51386 37.5355,-18.55294 12.0087,-5.56427 26.627,1.8123 35.335,-9.95219 3.9607,-5.35082 6.9258,-12.1967 11.6952,-12.17761 5.2927,0.0212 13.6798,6.53425 18.1973,10.43156 9.6092,8.29009 22.0702,2.72316 33.3624,3.35203 3.4517,0.19223 7.2314,4.45173 6.3931,7.95979 z m -84.8233,150.50419 c -2.1416,12.8179 -1.0754,23.054 1.132,35.6996 1.5898,9.1081 2.2516,18.965 12.1498,21.9856 5.8883,1.7968 12.8193,3.3323 14.5476,-3.25 2.8461,-10.8397 1.9671,-19.7502 1.3711,-30.6984 -0.8566,-15.7329 -5.37,-35.2232 -4.3105,-51.0943 0.482,-7.2198 2.7524,-17.0469 3.4979,-27.0403 1.2629,-16.9294 0.861,-34.207 -0.3135,-39.1565 -4.0605,-5.21361 -6.5425,-8.56865 -13.3365,-13.51061 -6.5605,-4.77202 -10.1384,-8.0345 -14.6257,-5.57422 -3.9156,2.14684 -3.2364,11.31941 -3.4147,15.91761 -0.1047,2.69879 1.0034,12.22783 -0.1697,14.57773 -5.6135,2.97821 -9.7041,8.56809 -7.8828,10.71519 0.9535,1.124 6.7348,-3.0083 9.1321,-3.4982 0.058,3.6935 6.2,50.5739 2.9038,70.1018 -12.6101,0.175 -8.6951,0.1206 -12.6101,0.175 4.1884,-2.486 2.2854,-1.6654 4.6705,-5.4913 2.5493,-4.0895 4.7579,-2.618 3.9245,-6.7445 -0.3575,-1.7696 -2.6767,-2.6361 -4.6085,-1.379 -2.1193,1.379 -1.5509,5.7034 -2.4401,7.976 -1.0313,2.6359 -1.8434,2.9968 -1.5464,5.6388 12.6101,-0.175 0,0 12.6101,-0.175 -0.1872,1.6113 -0.4127,3.2198 -0.6809,4.825 z"
       inkscape:label="the end at l_A_st" />
    <path
       style="display:inline;fill:#171717;fill-opacity:1;stroke:none;stroke-width:0.5;stroke-dasharray:none;stroke-opacity:1"
       d="m 1439.1049,976.61893 c -1.4962,21.50771 6.2503,52.48757 -0.1572,77.87977 -3.7224,14.7513 -4.2778,28.4186 -3.223,43.4447 0.6398,2.4451 -2.7636,0.8389 -3.7439,3.5941 -0.5748,1.6156 0.9189,4.635 4.5214,4.4629 0.9785,2.728 -0.2568,11.1518 0.3066,15.9254 0.8962,7.5918 0.356,9.301 4.1247,17.4732 1.4743,1.0051 -3.9231,7.2068 -1.7697,9.4605 2.1111,2.2093 5.0671,-8.0461 8.916,-1.5172 3.9619,6.7929 8.0343,15.7025 6.3712,24.6409 -2.3299,12.5217 -11.4749,26.5036 -8.7504,37.5523 2.4552,9.957 -2.0848,19.2138 -9.7703,20.3897 -4.5951,0.703 -13.7072,-4.4137 -19.0289,-6.8233 -8.264,-3.7419 -16.9166,-13.5664 -17.1731,-16.4682 -0.5008,-5.6673 1.1797,-12.4832 -0.6673,-16.2194 -4.4019,3.031 -8.1657,3.6914 -9.5752,-0.9929 -3.3995,-11.298 -8.6352,-30.1535 -9.1189,-41.9182 -0.8865,-21.5613 -0.3673,-44.3167 2.2917,-65.6887 1.1084,-8.9086 7.337,-16.3447 6.5438,-25.1398 -0.8883,-9.8502 -5.6899,-19.0723 -5.9815,-29.0953 -0.3664,-12.5934 -3.3076,-26.0275 -2.7058,-38.56915 1.1715,-24.41228 6.8376,-37.64441 6.8696,-56.29818 0.02,-11.40331 -6.6716,-19.98805 -8.252,-31.364 -0.3211,-2.31163 -0.7409,-5.14924 -1.1693,-8.20215 4.5961,-0.575 0,0 4.5961,-0.575 0.7807,2.68186 2.1315,3.94604 4.2544,3.34174 0.9683,-0.27562 5.3119,-5.27719 4.303,-8.24212 -0.9407,-2.76443 -2.2418,-5.45934 -4.9837,-2.84012 -1.5505,1.48104 -4.81,2.3366 -3.5737,7.7405 -1.2992,0.16254 0,0 -4.5961,0.575 -1.4663,-7.97411 -2.7573,-24.11434 -0.9826,-26.60332 2.3896,-2.43871 16.6111,0.0435 23.7247,-3.83505 3.6902,-2.01205 14.5154,-13.44671 16.1939,-9.4944 1.1076,2.60808 -1.404,7.81508 0.8557,6.49047 1.8735,-1.0982 7.8222,-14.97527 14.1587,-12.17077 10.5917,4.68779 9.4615,8.89811 9.9111,17.69967 0.4818,9.43169 0.3096,23.25562 1.422,30.24919 1.4742,9.2683 -3.8483,34.60892 -3.0158,43.95071 0.1826,2.04862 -0.7562,16.50693 -0.6792,26.88143 0.03,4.03016 -3.7462,1.26392 -3.869,5.46022 -0.082,2.81662 2.6575,4.39783 3.422,4.84486 z"
       id="path15975"
       sodipodi:nodetypes="cscscscscssssscssssssssccssscccsssssssssc"
       inkscape:label="the end at _L_ast" />
    <path
       style="display:inline;fill:#171717;fill-opacity:1;stroke:none;stroke-width:0.5;stroke-dasharray:none;stroke-opacity:1"
       d="m 1301.3835,1118.064 c 0,0 -5.1072,1.6601 -6.3835,2.936 -1.2763,1.2759 0.062,8.1285 2.4808,7.1023 2.419,-1.0262 4.1262,-7.4162 5.5192,-6.1023 3.078,2.9031 17.1448,7.734 17.7309,10.0253 3.0225,11.8143 2.882,26.1457 -4.3271,36.2232 -6.1305,8.5698 -15.2284,16.7769 -18.4741,22.3193 -3.467,5.9203 -10.1969,16.1522 -16.6627,18.5482 -3.6408,1.3492 -6.7003,-0.7507 -10.6481,-3.5278 -2.4026,-1.6901 1.1848,-1.6302 1.3811,-2.5882 0.2988,-1.4586 0.734,-3.0701 -0.3836,-4.4501 -1.1176,-1.38 -2.865,2.9439 -5.179,0.7263 -2.314,-2.2176 -19.0051,-21.3239 -24.3276,-34.1713 -9.1807,-22.1606 -1.7999,-36.0329 -1.4484,-49.3811 0.2525,-9.5888 -2.3559,-19.4347 -2.294,-29.1929 0.097,-15.3833 -2.4249,-36.0384 -1.8175,-47.8762 0.103,-2.0081 -0.2414,-3.9122 0.4418,-5.3433 0.7072,-1.4815 4.4753,6.5115 4.7879,0.2282 0.091,-1.8194 -1.1138,-4.8959 -1.1123,-7.5442 0,-2.3938 -3.3015,0.2146 -3.2831,-2.5572 0.083,-12.5321 1.6823,-29.42239 1.6823,-36.84742 0,-4.21552 1.1501,-12.05372 -1.9623,-15.40138 -3.768,-4.05286 -15.3783,-0.89744 -16.2168,-3.94847 -0.8385,-3.05102 -1.3599,-4.9085 -0.4244,-12.23434 0.2428,-1.90163 5.7525,-11.37499 9.2268,-18.63087 1.0891,-2.27454 5.1433,-2.4261 6.1927,-4.63849 1.2038,-2.5379 -0.98,-5.30993 -0.6073,-8.28676 0.5137,-4.10267 1.5456,-9.1659 2.3304,-11.03641 3.9453,-9.40291 11.4938,-14.85754 18.5426,-21.44421 6.0747,-5.67652 10.9761,-13.13245 15.5415,-20.05225 2.5577,-3.87671 8.7672,-13.80896 14.5674,-13.08532 5.5357,0.69067 6.6032,14.47131 7.1204,18.36303 1.2538,9.43372 1.7264,20.76585 0.8199,30.28392 -0.625,6.56213 -1.461,17.62364 0.7086,19.97317 2.1447,2.32254 17.5193,0.75072 24.8723,4.91308 5.0207,2.84204 7.1346,15.37598 7.2632,20.68139 0.053,2.20815 0.3575,3.73626 -0.5066,6.53019 l -7.477,-1.81384 c 0.308,-1.35535 1.7314,-5.92847 0.8803,-6.42123 -0.4833,-0.27985 -2.0296,1.72615 -3.1422,3.79133 -0.6012,1.1158 -1.0477,1.67252 -2.3405,3.45511 l -4.1415,-2.41225 c 0.4433,-1.15961 0.7865,-1.5216 0.1153,-2.43885 -0.3613,-0.49378 -2.9362,-0.81782 -3.8128,0.10402 -1.1085,1.16583 -0.4745,2.5275 -0.038,2.77407 1.4507,0.81883 2.6426,0.23012 3.7352,-0.43924 l 4.1415,2.41225 c -1.6244,1.40468 -1.5879,3.94946 0.4786,4.50286 1.177,0.31521 3.302,-0.68059 4.101,-1.49772 0.7595,-0.77678 -0.1131,-2.01271 0.023,-3.83035 7.477,1.81384 0.027,0.0891 7.477,1.81384 -1.0832,2.56953 -3.7669,8.8357 -5.4877,9.53012 -9.3729,3.78233 -24.5872,0.37946 -24.7286,5.02583 -0.3675,12.0808 -0.7476,28.21989 -0.7076,40.14319 0.038,11.2365 -5.6094,37.1918 -3.6458,57.8236 0.9283,9.7537 2.1244,22.1843 4.8302,31.624 1.788,6.2378 3.1526,10.4468 4.5882,15.3402"
       id="path15980"
       sodipodi:nodetypes="czzssssssszzsssssssssszsssssssssssssccssccsssccssccsssssc"
       inkscape:label="the end a_T_ last" />
    <path
       id="path15992"
       style="display:inline;fill:#171717;fill-opacity:1;stroke:none;stroke-width:0.5;stroke-dasharray:none;stroke-opacity:1"
       d="m 1204.7813,920.58398 c 4.1095,0.43259 -0.8517,11.09982 -0.9586,16.41675 -0.081,4.02321 1.3778,9.05051 0.2773,12.59205 -0.9854,3.1709 -6.7961,3.17036 -7.8212,6.40979 -0.4113,1.29957 -1.1017,3.10185 0.8102,4.15339 1.0712,0.58913 6.0866,-1.03033 6.479,0.88128 1.0929,5.32371 -1.9553,23.54902 -1.7185,35.82465 0.2337,12.12221 3.3923,23.73631 2.8375,35.95721 -0.475,10.4628 -4.7325,20.3764 -5.4568,30.9047 -0.6114,8.8854 2.4875,16.2708 3.5189,24.8619 0.7543,6.2844 -0.3146,12.768 0.2851,19.069 0.7513,7.8942 0.456,17.2724 5.5807,23.791 5.4843,6.976 15.0765,3.6481 13.9456,14.4131 -1.052,10.0137 -3.1604,22.7649 -6.2027,32.2935 -1.2751,3.9936 -5.2693,10.0175 -7.3607,11.683 -1.7139,1.3648 -4.6377,-0.2085 -5.2752,1.1645 -0.4681,1.0082 1.0207,2.4252 1.4676,3.2805 -1.3215,2.0003 -0.9189,1.3866 -1.3215,2.0003 -3.1793,4.8455 -8.2576,18.6858 -15.6104,17.3903 -16.4122,-2.892 -21.5936,-29.5723 -27.7038,-41.1915 -3.9596,-7.5295 -7.6299,-9.7133 -10.3585,-18.0849 -4.629,10.1388 -3.1639,19.4226 -8.8492,28.875 -4.5146,7.5062 -10.0346,11.3227 -14.7907,18.7539 -1.8942,2.9597 -5.2102,11.2991 -8.7082,12.7459 -7.0895,2.9321 -16.0712,-5.0383 -21.1299,-8.9632 -13.2357,-10.2693 -16.3523,-17.1213 -21.2075,-28.6538 -4.8553,-11.5324 -5.843,-29.5621 -6.7793,-38.6601 -0.4845,-9.4339 -0.9084,-19.3823 1.6807,-32.8281 1.5407,-8.0011 -0.1949,-14.9274 -0.6807,-19.2735 -0.1782,-1.5941 4.4878,1.3398 5.0508,0.1953 0.955,-1.9417 -6.345,-3.1126 -7.418,-8.5898 -1.073,-5.4772 -4.0532,-20.4204 -3.1293,-33.8984 0.5963,-8.6978 4.3793,-36.167 3.2311,-49.30671 -0.5111,-5.84952 -11.426,-8.99462 -11.5805,-12.5379 -0.1551,-3.55337 4.4821,-4.97943 5.2964,-4.60856 3.982,1.81349 4.3728,1.70212 4.1867,-0.59332 -0.9588,-11.82562 -5.1938,-22.41547 -1.4216,-31.33877 1.1639,-2.75306 18.3164,-5.83548 23.2726,-9.24344 6.6526,-4.57447 11.7374,-8.02601 19.6329,-10.10865 6.2278,-1.6427 14.4126,-1.98974 20.1718,-5.12158 6.3761,-3.46741 10.8146,-14.84599 18.3083,-14.75904 10.3212,0.11976 26.2933,5.42517 36.0589,8.70435 7.3788,2.47766 15.8338,3.85364 23.3907,5.3999 M 1151.6112,978 c 1.5854,-4.95517 -8.7808,-8.31937 -13.1624,-6.65455 -4.1881,1.59131 -17.2371,-2.30612 -17.5485,1.35963 -2.142,25.21226 0.8751,49.72452 -0.088,75.26762 -0.6081,16.1255 -2.8798,41.1046 -0.8571,54.3869 1.4434,9.4787 7.6542,21.2488 13.8987,28.6502 2.3766,2.8169 8.6144,7.3548 12.2085,4.4772 2.5979,-2.08 3.9786,-9.4136 4.2558,-12.3151 0.9504,-9.9458 -0.1168,-21.5166 -0.1698,-31.5625 l -0.3906,-73.8047 c -0.071,-13.3565 -0.1478,-26.19203 1.8532,-39.8047"
       inkscape:label="the end _A_t last" />
    <path
       id="path15972"
       style="display:inline;fill:#171717;fill-opacity:1;stroke:none;stroke-width:0.5;stroke-dasharray:none;stroke-opacity:1"
       d="m 920.5186,839.78682 c 0,0 4.1446,-1.12475 6.01813,2.53263 0.4501,0.87867 3.79019,3.95626 3.54299,7.37001 -0.309,4.26712 -3.13394,8.48014 -5.27241,11.79707 -1.32423,2.054 -2.23202,3.64576 -0.84125,4.88078 5.57517,4.95081 10.83309,5.65865 16.61988,7.53113 1.87981,0.60826 5.68331,2.23951 6.63867,0.75586 0.83364,-1.29463 -1.04875,-2.50365 -2.03125,-4.39844 -1.03232,-1.99087 -1.44299,-7.31633 0.0957,-7.34961 2.39949,-0.0519 8.28964,7.69785 8.9336,11.25586 0.26201,1.44768 -2.04661,3.10811 -1.75782,5.07617 0.30988,2.11176 0.17603,2.49223 3.29102,4 2.10357,1.01821 0.85362,0.72272 13.86133,11.17969 12.0141,9.6582 25.71094,19.42407 25.24731,36.26562 -0.0941,3.41859 -5.63948,4.49201 -5.45044,6.28907 0.18904,1.79706 0.77716,1.92777 1.90332,2.09961 1.86405,0.28442 4.04724,-4.3426 5.04981,-3.51172 6.31181,5.2309 11.11871,60.77142 11.11871,91.74385 0,12.5063 -0.5752,36.751 -1.5524,42.3836 -0.2976,1.7151 -2.942,3.1019 -4.8227,5.8028 -1.93486,2.7786 -2.80334,5.7942 -2.32955,7.849 0.47379,2.0549 0.82775,3.9774 2.21875,3.6602 1.34,-0.3056 5.0688,-9.2736 5.1719,-5.1016 0.1031,4.1721 2.8111,49.0234 -6.1719,66.9507 -3.2547,6.4953 -13.22321,8.8993 -17.77436,14.5138 -3.98181,4.9122 -7.04089,11.8068 -11.0661,16.6879 -5.53155,6.7078 -12.85997,12.041 -17.98339,19.0976 -4.31732,5.9465 -8.39087,14.7106 -13.15491,20.0523 -6.64469,7.4503 -23.9049,-6.9576 -32.92358,-8.1638 -4.43127,-0.5927 -12.0846,1.0589 -15.62873,-2.9876 -2.75678,-3.1476 6.07276,-14.7872 2.11701,-15.4399 -3.74246,-0.6175 -6.98058,5.0003 -8.86813,3.8881 -2.97129,-1.7509 -5.07112,-10.9925 -6.76908,-15.6928 -4.71899,-13.0632 -9.40667,-28.0931 -10.75555,-41.9766 -2.42828,-24.9932 -1.5766,-48.8488 -1.61829,-73.8515 -0.0141,-8.439 -3.36829,-16.77 -2.97693,-25.3907 0.27527,-6.0638 3.69672,-14.4404 3.85205,-20.539 0.36078,-14.1658 -3.72803,-28.08371 -4.70428,-42.33987 -0.5481,-8.0033 0.17882,-16.79118 2.5238,-20.77734 2.34498,-3.98616 13.72712,-8.43145 19.4375,-9.01301 1.92614,-0.19617 -3.72863,11.39863 0.26953,12.27863 5.08759,1.11978 3.8042,-12.38855 6.87134,-14.03645 3.42038,-1.83768 2.32812,-0.30047 5.63307,-2.61358 2.58931,-1.81224 7.97658,-2.63228 7.73278,-6.43798 C 903.9404,931.84033 897.1192,930.3717 894,928.69055 885.67249,924.20239 878.63354,918.19666 873.76312,910 c -12.04333,-20.26831 1.35633,-33.46716 15.25153,-47.04016 5.54535,-5.41675 10.32389,-14.16807 17.36387,-17.69932 5.05988,-2.53808 8.68341,-3.92512 14.14008,-5.4737 m 28.9189,305.86938 c 5.29919,-20.4819 -1.48957,-38.1923 -1.38984,-58.8749 0.0588,-12.1948 5.68287,-23.784 6.51911,-35.7813 1.34137,-19.2439 -3.35168,-36.4014 -7.50842,-55.04687 -2.77423,-12.44409 -5.4618,-28.73975 -11.45362,-39.99609 -2.55261,-4.79529 -5.93994,-9.72755 -11.10962,-5.65223 -4.6972,3.70288 -4.77362,11.71814 -5.45105,17.23425 -1.87622,15.27728 1.0274,28.78998 2.01612,43.63284 0.49559,7.4399 -1.34555,16.766 -2.34925,24.9321 -0.66226,5.3882 -0.31695,10.4097 -0.70705,15.2816 -0.30235,3.7761 -1.35842,7.4624 -1.68974,11.16 -0.57792,6.4497 2.06854,9.7864 3.03912,16.0733 1.4701,9.5222 0.80043,20.0219 2.35372,29.5998 2.60583,16.0684 10.68694,32.3899 27.73052,37.4375"
       inkscape:label="the en_D_ at last" />
    <path
       style="display:inline;fill:#171717;fill-opacity:1;stroke:none;stroke-width:0.5;stroke-dasharray:none;stroke-opacity:1"
       d="m 819.63672,1206.5898 c 0,0 -2.64572,-2.5553 -5.7832,-3.8554 -5.41107,-2.3899 -11.0503,-6.8979 -15.95508,-10.293 -2.82274,-2.115 -5.83521,-6.6364 -5.1465,-10.5463 0.16559,-0.94 6.28955,-1.6867 6.77746,-3.2492 0.45705,-1.4637 -2.37244,-12.074 -2.85649,-21.0346 -0.24519,-4.539 0.10378,-9.5934 -0.50494,-13.7031 -0.26206,-1.7693 -1.66446,-3.192 -2.16797,-4.9082 -1.66234,-5.6661 -2.51228,-8.7251 -2.73162,-17.5028 -0.22041,-8.8203 0.47569,-17.6721 0.2815,-20.4538 -0.0722,-1.0346 -0.47869,-4.2 -1.20716,-5.4245 -1.76179,-2.9612 -5.51912,-5.0539 -5.14954,-8.9631 -0.20664,-1.4403 -0.47124,-3.9368 0.39063,-5.1073 0.86186,-1.1704 3.23355,-0.8559 3.26775,-2.2126 0.23859,-9.4634 -0.88582,-15.8559 1.24188,-26.9453 1.65405,-8.6207 5.46607,-22.5365 6.15631,-31.6521 0.85642,-11.3101 1.41438,-17.4151 -2.5509,-28.88303 -1.1033,-3.19083 -5.63377,-14.66286 -10.16774,-19.32301 -5.4004,-5.55068 -9.98228,-5.84858 -12.85169,-5.84106 -2.65491,0.007 -6.44026,3.51388 -7.49533,7.17982 -1.87576,6.51744 1.78259,25.22906 3.38201,37.54288 1.13251,8.7191 -1.48327,18.3905 -1.69598,27.0742 -0.37219,15.1934 1.30163,28.1832 -1.52637,43.289 -1.58572,0.2044 -5.99167,3.6246 -7.06613,4.8677 -2.18765,2.531 -2.43084,6.9388 -1.27762,7.355 3.43997,1.2414 -0.53628,-2.7109 7.5625,-5.9766 0.78125,12.544 -1.92041,28.1717 3.60828,40.1719 3.65905,7.9421 18.11623,18.9373 15.41162,27.3945 -3.09897,9.6904 -2.81419,18.5298 -8.364,28.8479 -3.15792,5.8711 -7.661,10.5888 -10.96693,15.0499 -2.51555,3.3945 -7.60455,10.8032 -12.75955,14.1353 -1.76824,1.1429 -5.42843,1.3179 -6.92582,1.175 -4.84814,-0.4627 -14.94769,-5.0967 -18.84063,-8.157 -4.25336,-3.3437 -5.70478,-10.7095 -6.69752,-15.6643 -2.15167,-10.7395 -6.2529,-23.6073 -8.26458,-34.3438 -3.29053,-17.5618 -2.10399,-42.6904 -1.87865,-62.6806 0.1529,-13.5631 -1.85269,-23.5515 -1.85269,-25.6926 0,-4.149 4.76317,-24.1458 3.85438,-44.9002 -0.44169,-10.0872 -2.63745,-37.05032 -6.84668,-46.21096 -2.42523,-5.27808 -9.37176,-12.61853 -8.39941,-18.75781 2.22821,-14.06873 17.03623,-27.05836 22.06696,-35.04334 2.1987,-9.401 0.99944,-13.59033 4.60998,-18.96326 2.33703,-3.47778 9.31617,-4.85315 13.26868,-3.61963 18.59839,5.80408 23.10443,33.32642 28.29297,48.89185 10.12793,-9.92322 17.9787,-22.81421 24.88128,-34.04688 3.48914,-5.67798 9.79969,-16.19458 17.23981,-16.82958 9.36255,-0.79908 14.97003,9.48852 19.95246,15.69177 10.87939,13.54516 22.37854,23.58838 24.2442,42.23547 1.50769,15.06909 0.58658,31.24555 0.6596,46.39067 0.0562,11.6625 1.61578,22.8732 0.81207,34.6093 -0.93908,13.7128 -5.63952,26.1705 -4.151,40.0235 0.69153,6.4359 2.8971,13.5505 3.34632,20.0742 0.61609,8.9468 -2.12341,18.1832 1.42707,26.707 3.65509,8.7749 16.80956,17.4119 16.13421,27.4141 -1.0249,15.1797 -11.36591,36.1421 -17.52093,50.1719 -2.19438,5.0018 -7.1316,14.3153 -13.41572,14.7463 -6.72662,0.4614 -10.7857,-6.5816 -15.85156,-10.2542"
       id="path15985"
       sodipodi:nodetypes="cszssssssssssssssssssscsscsssssssssssssscsscssssssssssssc"
       inkscape:label="the e_N_d at last" />
    <path
       id="path15991"
       style="display:inline;fill:#171717;fill-opacity:1;stroke:none;stroke-width:0.5;stroke-dasharray:none;stroke-opacity:1"
       d="m 695,1005 c 1.72051,0.5033 4.50758,0.248 5.18893,1.4345 2.85466,4.9708 -3.77225,15.8498 -5.67404,19.7374 -3.79014,7.7476 -6.39111,16.9578 -11.49377,23.9954 -6.79163,9.3669 -15.85383,13.7987 -22.04456,24.0514 0.52994,1.3347 -2.1953,1.3021 -3.29297,1.8555 1.87366,5.2595 -13.77007,30.1069 -20.13242,42.1684 -3.73777,7.0859 -6.22188,8.6044 1.98399,15.6413 2.36685,2.0297 7.92804,6.2968 10.83203,7.4788 4.34503,1.7684 13.71398,0.9771 18.29687,1.0894 5.27881,0.1294 8.19806,5.0189 12.50684,1.5329 4.24731,-3.4361 1.18538,-6.067 1.58636,-10.5748 0.55134,-6.1981 4.25166,-15.8793 5.98078,-23.6645 3.63419,-2.492 8.57312,-3.104 10.53149,-2.8941 0.97656,14.6545 -2.93865,30.7358 -6.97869,43.8036 -2.69775,8.726 -6.64544,16.8287 -9.83338,25.2003 -5.07504,13.327 -12.50286,28.8609 -22.46845,38.0795 -11.07043,10.2405 -42.47197,-3.6627 -52.08545,-15.4819 -3.84521,-4.7274 0.52135,-4.9607 2.80343,-8.4023 0.9779,-1.4748 -11.94132,-0.6043 -14.30469,-1.6836 -4.02386,-1.8377 -16.33372,-17.2726 -17.79431,-31.8789 -1.30131,-13.0135 -0.57107,-27.6769 -0.38757,-40.6468 0.1143,-8.079 2.04018,-15.0921 2.39642,-22.9392 0.28309,-6.2357 -2.02995,-21.0221 -2.10099,-31.6712 -0.0312,-4.6838 4.13273,-7.5244 4.40135,-10.1807 0.89229,-8.8236 0.67227,-3.4888 4.08276,-12.0504 0.85011,-2.1341 -3.05719,0.9428 -4,0 -0.70711,-0.7071 0.90882,-2.5828 0,-3 -1.73534,-0.7966 -4.62509,6.4672 -4.34375,3.7344 0.39292,-3.8166 0.0187,-39.6452 -3.93689,-57.2969 -1.03204,-4.60549 -3.12123,-12.02599 -3.24188,-18.36743 -0.0902,-4.73856 1.39324,-8.87461 2.66778,-10.78345 1.36299,-2.04131 9.4806,-1.81628 13.14771,-2.21032 7.41376,-0.79651 13.23236,-1.72595 19.43671,-6.17847 4.67596,-3.35571 7.95489,-7.818 13.00464,-10.7317 10.29357,-5.93957 21.83042,-8.27968 31.80084,-14.90099 4.09204,-2.71751 9.55023,-12.41786 15.39685,-13.97475 0.86908,-0.23143 4.06244,0.68285 4.88104,0.8362 7.56492,1.4171 7.03101,17.24634 7.04242,22.97107 0.0336,16.84375 5.79582,32.95078 11.24646,48.70703 2.15769,6.23727 6.48982,16.12212 7.77474,22.19531 0.4928,2.3293 -3.05285,4.1397 -2.87663,5 m -62.70703,-42.01953 c -5.82727,2.58972 -4.31641,27.95062 -4.31641,45.84763 0,31.7052 1.29293,60.7156 1.29293,92.3633 2.56356,-2.9994 3.954,-4.5821 4.88714,-6.7336 2.78349,-6.4178 4.92955,-13.3382 7.2707,-19.4344 1.30159,-3.3893 3.40248,-7.4759 5.87104,-10.6735 2.78705,-3.6102 5.90863,-6.3556 6.36156,-10.7171 0.27698,-2.6672 -1.88437,-2.9137 -3.31308,-5.8606 -2.22424,-4.5878 -4.29982,-10.5018 -4.32175,-14.823 -0.11236,-22.142 -4.03643,-25.0405 -7.48437,-39.80076 -2.55288,-10.92857 0.0762,-16.82361 -3.75952,-27.53125 l -2.48828,-2.63672"
       inkscape:label="the _E_nd at last" />
    <path
       id="path15990"
       style="display:inline;fill:#171717;fill-opacity:1;stroke:none;stroke-width:0.5;stroke-dasharray:none;stroke-opacity:1"
       d="m 498.51563,939.3125 c 0,0 -2.29238,0.99176 -2.52832,1.79492 -0.17232,0.58659 -1.88007,2.21224 -1.56045,2.79147 0.29718,0.53856 3.34796,-2.47279 4.79384,-1.6069 0.72684,0.43528 5.34163,9.84768 7.68788,20.10851 2.50651,10.96168 2.09295,15.65531 4.28614,22.63275 2.75411,8.76193 8.93421,19.73415 7.24538,28.76215 -1.24858,6.6745 -6.34548,10.5262 -9.3403,16.6522 -4.40036,9.001 -6.36117,20.0269 -12.35606,28.3417 -2.82859,3.9233 -10.93328,9.7168 -15.38665,15.4862 -5.99471,7.7663 -11.78918,10.9223 -14.30884,21.5762 -1.71546,7.2535 -8.51201,17.1913 -12.76214,25.179 -0.91761,1.7246 -1.17194,5.5909 -0.3528,8.5003 1.11015,3.9431 3.88584,2.7839 4.1784,4.914 0.11034,0.8034 -2.93814,4.1178 -4.01816,6.3924 -1.4598,3.0743 -3.22688,2.9133 -1.78408,3.9196 1.63522,1.1406 5.49779,-1.8676 7.99686,-3.642 1.38782,-0.9855 3.14151,-2.4332 4.48906,-2.0817 4.49563,1.5319 12.16217,1.8429 17.61097,3.1358 4.88518,1.1592 7.45125,3.4142 13.22471,2.9753 4.48384,-0.3408 8.07112,-13.4321 10.59803,-29.501 0.89858,-5.7142 0.81574,-12.245 1.76835,-16.1958 0.37366,-1.5497 12.19485,-2.3486 12.9693,0.2762 1.82215,6.1757 -3.69901,28.726 -6.7988,47.2935 -1.95709,11.7227 -8.72748,19.7137 -13.11089,28.021 -3.50071,6.6345 -5.34615,12.9399 -10.47608,16.5706 -2.94142,2.0819 -11.6635,2.7981 -12.65003,3.9435 -0.24819,3.3332 3.35482,0.6548 5.06905,0.4476 1.66757,-0.2015 6.72072,-1.6345 4.58823,1.6573 -3.27903,5.0615 -10.01829,14.1005 -15.56049,16.9662 -3.87494,2.0038 -15.15316,1.5585 -19.3754,0.232 -18.69844,-5.8745 -41.34978,-22.3648 -48.65655,-41.3672 -6.87088,-17.8689 -4.8798,-35.9873 -5.69532,-54.6094 -0.57217,-13.0657 -3.0466,-26.6836 -1.79086,-39.8789 1.18698,-12.4731 4.22946,-25.3757 3.92013,-37.9023 -0.64859,-26.2651 -11.55233,-58.0387 -6.27941,-84.29767 1.02078,-5.0835 6.48184,-3.77806 10.36139,-6.11582 5.43719,-3.27637 10.84052,-9.23072 17.36719,-10.49476 6.20581,-1.2019 12.19006,1.74024 18.42609,-0.70483 8.12295,-3.18493 10.61584,-9.64002 17.15942,-14.92432 5.37299,-4.33899 12.44744,-6.74182 18.14495,-10.58008 3.94611,-2.65832 10.09403,-11.2467 15.26066,-7.39953 5.57541,4.15161 5.03155,9.32897 5.82388,15.2904 0.70443,5.30017 1.81265,12.1809 1.82172,17.44141 m -47.75211,22.6569 c -3.39098,3.26324 -4.10629,6.08911 -4.47858,12.28505 -0.47091,7.83736 1.2181,33.43855 -0.24975,49.15985 -0.21179,2.2684 -0.022,6.6125 -0.86747,8.3883 -0.46787,0.9827 -4.41287,3.8309 -5.33787,7.9443 -0.5524,2.4566 0.60664,7.8388 2.17015,8.2531 1.3111,0.3474 0.2802,-3.0172 0.44757,-4.523 0.16612,-1.4944 -0.0743,-2.9631 1.05213,-3.9591 0.49944,-0.4416 2.42064,-2.3275 2.70873,-1.7263 1.82739,3.8135 1.57664,22.2947 -0.0799,38.335 -1.61117,15.6007 2.97111,24.8441 2.97111,24.8441 0,0 2.72854,-16.1592 7.9212,-24.2656 4.55444,-7.1101 13.2519,-10.6008 14.40781,-19.4864 1.03022,-7.9193 -1.09829,-15.9518 -2.91907,-24.0711 -2.91878,-13.0157 -8.2535,-25.6128 -10.98862,-37.65932 -2.30576,-10.15546 0.75602,-21.92403 -6.75741,-33.51888"
       sodipodi:nodetypes="csssssssssssssssscsssssssscssssssssssssssssccssssssssscssssc"
       inkscape:label="th_E_ end at last" />
    <path
       style="display:inline;fill:#171717;fill-opacity:1;stroke:none;stroke-width:0.5;stroke-dasharray:none;stroke-opacity:1"
       d="m 300.10485,956.80003 c 6.9227,-4.76978 11.90176,-8.04022 15.72168,-15.66192 3.91934,-7.82007 7.97489,-21.92392 13.03836,-29.78176 1.90988,-2.96389 6.94837,-2.82665 13.78178,-2.82665 1.13471,0 3.71597,2.01145 7.71613,3.2954 7.15239,2.29575 17.32394,4.99649 21.08073,9.14177 7.81361,8.62162 14.71983,42.28785 15.48997,47.89502 3.0246,22.02161 1.46337,45.47881 1.72763,67.69051 0.56137,47.188 2.4193,106.8563 -4.46448,143.8619 -1.91433,10.291 -7.05568,20.2249 -10.34414,30.1381 -2.90094,8.7449 -1.19819,19.9785 -5.63737,27.9568 -3.14599,5.654 -11.50624,8.0966 -16.24672,12.2327 -7.88788,6.8821 -15.06256,18.9819 -21.82194,25.3811 -0.65711,0.6221 -1.95133,-0.6066 -2.60937,-1.0976 -0.75926,-0.5665 -0.0216,-1.5913 -0.78125,-2.7324 -0.58145,-0.8735 -1.63716,-1.5478 -2.6582,-1.5117 -0.97222,0.7196 -2.54903,2.4283 -3.15386,4.6304 -0.87104,3.1712 -0.47307,6.728 -1.2643,8.4428 -2.57194,5.5743 -5.74315,8.012 -9.75177,10.4082 -3.44803,2.061 -11.24924,2.6398 -13.0642,2.358 -6.70966,-1.0415 -8.91651,-5.9682 -8.26154,-12.6695 0.55358,-5.6641 7.72125,-13.1351 12.7185,-19.8204 1.05673,-1.4137 -0.17977,-2.4856 0.1234,-4.538 0.33574,-2.2729 1.57122,-4.9036 1.9503,-5.7202 0.68407,-1.4736 -2.04621,-6.7871 -1.46588,-7.7463 0.66937,-1.1062 2.24792,-4.4635 3.19504,-4.2179 0.73117,0.1897 2.41812,1.743 2.8876,3.6713 0.63175,2.5947 -0.51883,4.9867 0.43662,5.139 2.81725,-3.2039 3.34196,-5.7834 4.08759,-8.6953 0.74398,-2.9054 2.96147,-14.8591 6.97559,-22.7813 12.8312,-0.668 7.67962,-0.4147 12.8312,-0.668 0.54845,2.008 3.73407,1.7461 4.33907,1.6845 4.40629,-0.4492 5.24289,-1.971 7.35874,-3.9474 2.03223,-1.8983 1.1785,-5.2982 0.99266,-5.5373 -0.62845,-0.8084 -1.93516,1.3643 -2.45068,1.6904 -0.64069,0.4052 -1.57041,0.9649 -5.0988,2.0271 -1.80748,0.5441 -4.96952,2.2615 -5.14099,4.0827 l -12.8312,0.668 c 4.31177,-8.9541 6.58035,-18.6237 8.63411,-28.4375 2.61362,-12.7217 3.49577,-33.1098 4.38456,-46.0886 1.20355,-17.575 1.43876,-29.8645 1.29055,-47.2327 -0.11437,-13.4029 -2.88968,-27.0132 -2.29977,-40.4834 0.48459,-11.0656 3.46541,-21.9163 4.58446,-32.9309 0.83008,-8.1703 1.72127,-19.4997 -0.0591,-23.3556 -2.30796,-4.99854 -6.86183,-8.39786 -9.88276,-13.02042 -4.71338,-7.21222 -7.63001,-15.87385 -17.15415,-15.26184 -3.73043,0.23971 -7.4132,2.60438 -10.007,4.38742 -0.74826,9.79304 -0.68966,30.11404 -0.68966,38.31944 0,16.3535 3.80865,33.3063 3.15504,49.2762 -0.54795,13.3884 -2.51884,36.1199 -2.77667,53.5005 -0.2236,15.0729 1.14941,18.176 4.21869,20.8474 6.02227,5.2415 11.129,11.1009 12.6101,11.8925 -0.96368,7.4621 -5.10825,22.4817 -6.44352,35.3693 -1.20875,11.6665 -6.49953,20.8244 -10.24798,25.6568 -7.38252,9.5172 -7.69733,13.2629 -16.39896,17.0978 -5.75541,2.5365 -11.67808,-9.3513 -14.72486,-12.9184 -10.8176,-12.6651 -21.25654,-25.973 -23.69163,-42.9325 -1.16648,-8.124 -0.31486,-16.2209 -0.31486,-24.2929 0,-11.9443 -1.01572,-22.2038 -1.01572,-34.291 0,-3.0432 -0.21893,-11.0466 -0.0119,-15.1303 0.0678,-1.3378 1.32541,-2.3758 1.56302,-3.2696 0.6671,-2.5095 0.57681,-1.1654 0.73586,-4.1626 0.13897,-2.619 -1.17145,-2.3592 -1.45211,-5.1564 -0.48644,-4.8482 -0.81345,-11.6433 -0.60759,-14.7389 0.86007,-0.794 2.7564,-1.9323 3.11618,-2.3271 1.8854,-2.0687 2.9404,-4.4544 2.90961,-4.8177 -0.0781,-0.9209 -0.76278,-0.3976 -1.34201,0.3047 -0.67167,0.8144 -1.38311,1.6203 -2.05712,2.1984 -0.95584,0.8198 -3.07012,2.3772 -3.21383,1.1221 -1.08107,-9.442 -2.10902,-18.9239 -1.67518,-27.3684 0.94501,-18.3943 6.15009,-33.6901 6.38174,-52.07027 0.12573,-9.97656 -1.72265,-20.7384 -2.40368,-30.68359 -1.34284,-19.60938 -1.39002,-39.24158 -3.25926,-58.80469 -1.15087,-12.04468 -5.51402,-24.06274 -5.02557,-36.2207 8.38991,-2.46875 13.08248,-10.57931 20.69417,-14.04184 7.27195,-3.30798 15.04107,-1.12243 22.75628,-2.65673 4.16592,-0.8285 12.44897,-6.20525 16.65334,-4.07634 6.5488,3.31592 8.54679,24.19366 8.62412,30.69427 0.21857,18.37305 -3.79071,36.55 -5.04474,54.86189 -0.73001,10.66111 0.0819,18.12642 0.0819,28.80013"
       id="path15973"
       sodipodi:nodetypes="csssssssssssssscssssssssssscsccsssssccsssssssscsssscssssssssssscsssscsssscsssssc"
       inkscape:label="t_H_e end at last" />
    <path
       style="display:inline;fill:#171717;fill-opacity:1;stroke:none;stroke-width:1;stroke-dasharray:none;stroke-opacity:1"
       d="m 203.97227,896.23223 c 0.98905,0.83642 2.24676,-2.87636 2.68086,-1.47735 0.69208,2.23044 0.43158,9.46933 0.2489,11.33351 -0.61552,6.28113 -2.21591,19.23844 -1.48536,23.56896 6.13238,2.88473 23.90815,-2.89904 28.12462,0.95935 1.29657,2.26733 1.49771,7.04095 1.8624,9.55487 0.38978,2.68713 1.25198,7.65627 1.16878,10.38649 -0.14765,4.84448 -0.70956,15.11328 -5.31103,17.45679 -7.24558,3.69016 -15.45671,2.94438 -21.32823,6.06833 -2.623,6.63617 -2.97631,17.27391 -3.65326,24.18199 -0.95329,9.72813 -2.94971,18.64543 -2.58205,28.46963 0.43825,11.7107 3.50362,24.1603 3.71169,35.8839 0.28346,15.9718 -2.76194,33.411 1.53788,48.7626 2.97437,10.6193 14.36544,17.1596 24.64352,19.8232 -0.0302,3.6447 -0.55221,11.4829 -1.13246,15.7102 -0.85949,6.2615 -3.64879,9.9344 -5.27924,16.3697 -1.99028,7.8556 -4.02946,15.4323 -7.60566,21.0407 -3.5421,5.555 -10.75855,9.5624 -14.48028,14.6201 -5.94226,8.0755 -16.97871,23.1783 -27.21561,10.2479 -4.52609,-5.7168 -7.68948,-15.0099 -10.89781,-21.4431 -0.87568,-1.7559 -15.78494,-29.4232 -18.90123,-41.75 l 7.39009,-1.8792 c 1.04061,1.5299 1.68511,2.2522 2.6041,1.2839 1.27235,-1.3405 2.31925,-2.9538 1.5819,-3.6614 -1.00258,-0.9622 -1.99035,-1.7921 -3.41123,-0.8399 -1.41783,0.9502 -1.15585,2.1492 -0.77477,3.2174 L 148.0787,1146 c -1.93605,-11.0413 0.0621,-22.2502 1.12655,-33.25 1.81994,-18.8064 3.06445,-58.3173 3.20376,-58.9874 0.1168,-0.5618 2.09814,0.4357 4.50461,2.0764 0.37087,0.2529 2.04393,2.5334 2.76189,2.1505 0.73019,0.8055 0,0 1.59711,1.7619 -0.71737,0.5304 1.38358,2.3077 1.01324,2.8899 -0.85277,1.3405 -1.86413,4.3971 -1.06571,5.0938 1.0857,0.9473 1.18025,-1.0744 2.36869,-1.2821 1.06443,-0.1861 -0.11139,-1.9938 -0.18463,-3.2238 -0.0504,-0.8458 -1.61194,-3.9512 -2.13159,-3.4778 -1.59711,-1.7619 0.0395,0.051 -1.59711,-1.7619 4.5e-4,-0.7268 -0.26783,-1.3208 -0.45453,-1.6966 -0.3451,-0.6946 -0.96624,-2.2355 -2.63083,-4.0425 -1.14635,-1.2444 -3.37293,-1.5049 -4.10132,-2.826 -0.47439,-0.8604 -0.37737,-1.4306 -0.49634,-2.1776 -0.37671,-2.3649 4.2839,-3.0678 5.13326,-3.9203 1.85828,-1.8652 1.23804,-1.7017 0.48392,-3.382 -0.38154,-0.8501 -0.43827,1.1635 -1.22741,1.9414 -0.69304,0.6832 -2.27293,1.8769 -2.69189,0.4856 -0.58824,-1.9534 0.72586,-1.4329 1.39281,-2.9018 0,0 -0.47625,-1.1541 -1,-1.2375 -0.88887,-0.1414 -2.05236,2.3442 -2.26516,1.4697 -0.35276,-1.4497 -1.9088,-18.7963 -0.42684,-30.0555 1.48866,-11.31001 5.62253,-18.85 2.14395,-30.40896 -1.43369,-4.76402 -1.84869,-9.89448 -6.12192,-10.04018 -3.856,-0.13148 -9.41347,-0.2965 -13.19393,-2.00829 -1.54302,-1.39618 -2.13474,-10.23079 -1.23319,-12.80378 2.17789,-6.21557 6.82075,-11.12884 9.17454,-17.38519 3.55127,-9.43933 5.01622,-20.37154 11.0919,-28.70638 6.94562,-9.5282 17.32601,-14.86315 23.95505,-24.91234 3.41471,-5.17651 14.27119,-28.01831 22.20127,-26.27723 3.55417,0.7804 5.14001,8.78096 5.60428,11.63078 1.11568,6.84843 1.91319,15.00008 1.41976,22.49373 -0.10761,1.63424 -3.25107,4.33772 -2.46062,5.00367"
       id="path15979"
       sodipodi:nodetypes="cssccssscsssscssssssccsssccsssccssssccsssssssscssssscsssssssc"
       inkscape:export-filename="the_solid.svg"
       inkscape:export-xdpi="96"
       inkscape:export-ydpi="96"
       inkscape:label="_T_he end st last" />
  </g>
</svg>
